# Blender v2.92.0 OBJ File: ''
# www.blender.org
mtllib MonsterSpawnPoint.mtl
o SpawnPoint_Plane
v 0.197326 0.000000 -0.074694
v 0.037720 0.000000 0.218803
v 0.241355 0.000000 -0.179579
v 0.170038 0.000000 -0.191081
v 0.144891 0.000000 0.033225
v 0.100052 0.000000 0.112835
v 0.097274 0.000000 -0.130658
v 0.012500 0.000000 0.000000
v 0.012500 0.375000 0.000000
v 0.000000 0.000000 0.250000
v -0.197326 0.000000 -0.074694
v 0.000000 0.000000 0.071595
v -0.037720 0.000000 0.218803
v -0.241355 0.000000 -0.179579
v -0.170038 0.000000 -0.191081
v 0.000000 0.000000 -0.012500
v 0.000000 0.000000 0.156513
v -0.144891 0.000000 0.033225
v -0.100052 0.000000 0.112835
v -0.097274 0.000000 -0.130658
v 0.000000 0.375000 -0.012500
v -0.012500 0.000000 0.000000
v -0.012500 0.375000 0.000000
v 0.000000 0.000000 0.012500
v 0.000000 0.375000 0.012500
vt 1.000000 0.750000
vt 0.750000 1.000000
vt 0.750000 0.750000
vt 0.750000 0.250000
vt 0.500000 0.500000
vt 0.500000 0.250000
vt 0.750000 0.000000
vt 0.500000 0.000000
vt 0.750000 0.500000
vt 0.500000 0.750000
vt 1.000000 0.500000
vt 1.000000 0.500000
vt 1.000000 1.000000
vt 0.750000 1.000000
vt 0.750000 0.500000
vt 0.500000 1.000000
vt 0.500000 0.500000
vt 1.000000 0.750000
vt 0.750000 0.750000
vt 0.750000 1.000000
vt 0.750000 0.250000
vt 0.750000 0.000000
vt 0.750000 0.500000
vt 1.000000 0.500000
vt 0.750000 0.500000
vt 0.750000 1.000000
vn 0.0000 1.0000 0.0000
vn 0.7071 0.0000 -0.7071
vn 0.7071 0.0000 0.7071
vn -0.7071 0.0000 -0.7071
vn -0.7071 0.0000 0.7071
usemtl None
s off
f 3/1/1 4/2/1 7/3/1
f 6/4/1 12/5/1 17/6/1
f 2/7/1 17/6/1 10/8/1
f 5/9/1 16/10/1 12/5/1
f 1/11/1 7/3/1 5/9/1
f 6/4/1 5/9/1 12/5/1
f 2/7/1 6/4/1 17/6/1
f 5/9/1 7/3/1 16/10/1
f 1/11/1 3/1/1 7/3/1
f 16/12/2 21/13/2 9/14/2 8/15/2
f 8/15/3 9/14/3 25/16/3 24/17/3
f 9/14/1 21/13/1 25/16/1
f 14/18/1 20/19/1 15/20/1
f 19/21/1 17/6/1 12/5/1
f 13/22/1 10/8/1 17/6/1
f 18/23/1 12/5/1 16/10/1
f 11/24/1 18/23/1 20/19/1
f 19/21/1 12/5/1 18/23/1
f 13/22/1 17/6/1 19/21/1
f 18/23/1 16/10/1 20/19/1
f 11/24/1 20/19/1 14/18/1
f 16/12/4 22/25/4 23/26/4 21/13/4
f 22/25/5 24/17/5 25/16/5 23/26/5
f 23/26/1 25/16/1 21/13/1
